<svg width="28" height="28" viewBox="0 0 28 28" fill="none" xmlns="http://www.w3.org/2000/svg">
<g clip-path="url(#clip0_2418_881)">
<path d="M15.0967 13.9997L21.5444 7.55193C21.6719 7.40314 21.7384 7.21175 21.7309 7.016C21.7233 6.82025 21.6422 6.63457 21.5037 6.49605C21.3651 6.35753 21.1794 6.27638 20.9837 6.26882C20.788 6.26126 20.5966 6.32785 20.4478 6.45527L14 12.903L7.55221 6.44749C7.40576 6.30103 7.20712 6.21875 6.99999 6.21875C6.79287 6.21875 6.59423 6.30103 6.44777 6.44749C6.30131 6.59395 6.21903 6.79259 6.21903 6.99971C6.21903 7.20683 6.30131 7.40547 6.44777 7.55193L12.9033 13.9997L6.44777 20.4475C6.36635 20.5172 6.30022 20.603 6.25354 20.6995C6.20685 20.796 6.18062 20.9011 6.17648 21.0082C6.17235 21.1153 6.19039 21.2222 6.2295 21.322C6.2686 21.4218 6.32791 21.5124 6.40371 21.5882C6.47951 21.664 6.57016 21.7233 6.66996 21.7624C6.76977 21.8015 6.87659 21.8196 6.9837 21.8154C7.09082 21.8113 7.19592 21.7851 7.29241 21.7384C7.38891 21.6917 7.47471 21.6256 7.54444 21.5442L14 15.0964L20.4478 21.5442C20.5966 21.6716 20.788 21.7382 20.9837 21.7306C21.1794 21.723 21.3651 21.6419 21.5037 21.5034C21.6422 21.3649 21.7233 21.1792 21.7309 20.9834C21.7384 20.7877 21.6719 20.5963 21.5444 20.4475L15.0967 13.9997Z" fill="black"/>
</g>
<defs>
<clipPath id="clip0_2418_881">
<rect width="28" height="28" fill="white"/>
</clipPath>
</defs>
</svg>
