<svg width="40" height="40" viewBox="0 0 40 40" fill="none" xmlns="http://www.w3.org/2000/svg">
<g filter="url(#filter0_ii_2418_889)">
<path d="M20 0C12.9045 0 7.15125 5.75327 7.15125 12.8487C7.15125 18.5312 10.8422 23.3529 15.9565 25.048C16.8663 25.3495 17.5531 26.1572 17.5531 27.1157V27.6007C17.5531 28.7052 16.6576 29.6007 15.5531 29.6007H14.0426C12.938 29.6007 12.0426 30.4961 12.0426 31.6007V32.492C12.0426 33.5966 12.938 34.492 14.0426 34.492H15.553C16.6576 34.492 17.553 35.3874 17.553 36.492V38C17.553 39.1046 18.4485 40 19.553 40H20.4444C21.5489 40 22.4444 39.1046 22.4444 38V36.492C22.4444 35.3874 23.3398 34.492 24.4444 34.492H25.9548C27.0594 34.492 27.9548 33.5966 27.9548 32.492V31.6007C27.9548 30.4961 27.0594 29.6007 25.9548 29.6007H24.4444C23.3398 29.6007 22.4444 28.7052 22.4444 27.6007V25.4647C28.3704 24.3224 32.8487 19.1079 32.8487 12.8487C32.8487 5.75327 27.0954 0 20 0ZM20 5.10927C24.2743 5.10927 27.7394 8.57437 27.7394 12.8487C27.7394 17.1231 24.2744 20.5882 20 20.5882C15.7256 20.5882 12.2605 17.1231 12.2605 12.8487C12.2605 8.57437 15.7256 5.10927 20 5.10927Z" fill="#FF8787"/>
</g>
<defs>
<filter id="filter0_ii_2418_889" x="-1" y="-3" width="41" height="45" filterUnits="userSpaceOnUse" color-interpolation-filters="sRGB">
<feFlood flood-opacity="0" result="BackgroundImageFix"/>
<feBlend mode="normal" in="SourceGraphic" in2="BackgroundImageFix" result="shape"/>
<feColorMatrix in="SourceAlpha" type="matrix" values="0 0 0 0 0 0 0 0 0 0 0 0 0 0 0 0 0 0 127 0" result="hardAlpha"/>
<feOffset dy="-3"/>
<feGaussianBlur stdDeviation="2"/>
<feComposite in2="hardAlpha" operator="arithmetic" k2="-1" k3="1"/>
<feColorMatrix type="matrix" values="0 0 0 0 0 0 0 0 0 0 0 0 0 0 0 0 0 0 0.25 0"/>
<feBlend mode="normal" in2="shape" result="effect1_innerShadow_2418_889"/>
<feColorMatrix in="SourceAlpha" type="matrix" values="0 0 0 0 0 0 0 0 0 0 0 0 0 0 0 0 0 0 127 0" result="hardAlpha"/>
<feOffset dx="-1" dy="2"/>
<feGaussianBlur stdDeviation="1.5"/>
<feComposite in2="hardAlpha" operator="arithmetic" k2="-1" k3="1"/>
<feColorMatrix type="matrix" values="0 0 0 0 1 0 0 0 0 1 0 0 0 0 1 0 0 0 0.57 0"/>
<feBlend mode="normal" in2="effect1_innerShadow_2418_889" result="effect2_innerShadow_2418_889"/>
</filter>
</defs>
</svg>
